# Test geometry for ANNA / Babylon.js relief kernel
# Conventions based on the triangulated OBJ style used by TestPhares.obj
# Coordinates are in the same approximate scale (radius / half-size = 35)
o 3_sphere_excroissances_pyramidales
v 0.000000 35.000000 0.000000
v 6.828161 34.327485 0.000000
v 6.696960 34.327485 1.332108
v 6.308398 34.327485 2.613024
v 5.677409 34.327485 3.793523
v 4.828239 34.327485 4.828239
v 3.793523 34.327485 5.677409
v 2.613024 34.327485 6.308398
v 1.332108 34.327485 6.696960
v 0.000000 34.327485 6.828161
v -1.332108 34.327485 6.696960
v -2.613024 34.327485 6.308398
v -3.793523 34.327485 5.677409
v -4.828239 34.327485 4.828239
v -5.677409 34.327485 3.793523
v -6.308398 34.327485 2.613024
v -6.696960 34.327485 1.332108
v -6.828161 34.327485 0.000000
v -6.696960 34.327485 -1.332108
v -6.308398 34.327485 -2.613024
v -5.677409 34.327485 -3.793523
v -4.828239 34.327485 -4.828239
v -3.793523 34.327485 -5.677409
v -2.613024 34.327485 -6.308398
v -1.332108 34.327485 -6.696960
v -0.000000 34.327485 -6.828161
v 1.332108 34.327485 -6.696960
v 2.613024 34.327485 -6.308398
v 3.793523 34.327485 -5.677409
v 4.828239 34.327485 -4.828239
v 5.677409 34.327485 -3.793523
v 6.308398 34.327485 -2.613024
v 6.696960 34.327485 -1.332108
v 13.393920 32.335784 0.000000
v 13.136560 32.335784 2.613024
v 12.374369 32.335784 5.125631
v 11.136638 32.335784 7.441263
v 9.470932 32.335784 9.470932
v 7.441263 32.335784 11.136638
v 5.125631 32.335784 12.374369
v 2.613024 32.335784 13.136560
v 0.000000 32.335784 13.393920
v -2.613024 32.335784 13.136560
v -5.125631 32.335784 12.374369
v -7.441263 32.335784 11.136638
v -9.470932 32.335784 9.470932
v -11.136638 32.335784 7.441263
v -12.374369 32.335784 5.125631
v -13.136560 32.335784 2.613024
v -13.393920 32.335784 0.000000
v -13.136560 32.335784 -2.613024
v -12.374369 32.335784 -5.125631
v -11.136638 32.335784 -7.441263
v -9.470932 32.335784 -9.470932
v -7.441263 32.335784 -11.136638
v -5.125631 32.335784 -12.374369
v -2.613024 32.335784 -13.136560
v -0.000000 32.335784 -13.393920
v 2.613024 32.335784 -13.136560
v 5.125631 32.335784 -12.374369
v 7.441263 32.335784 -11.136638
v 9.470932 32.335784 -9.470932
v 11.136638 32.335784 -7.441263
v 12.374369 32.335784 -5.125631
v 13.136560 32.335784 -2.613024
v 19.444958 29.101436 0.000000
v 19.071329 29.101436 3.793523
v 17.964799 29.101436 7.441263
v 16.167892 29.101436 10.803040
v 13.749662 29.101436 13.749662
v 10.803040 29.101436 16.167892
v 7.441263 29.101436 17.964799
v 3.793523 29.101436 19.071329
v 0.000000 29.101436 19.444958
v -3.793523 29.101436 19.071329
v -7.441263 29.101436 17.964799
v -10.803040 29.101436 16.167892
v -13.749662 29.101436 13.749662
v -16.167892 29.101436 10.803040
v -17.964799 29.101436 7.441263
v -19.071329 29.101436 3.793523
v -19.444958 29.101436 0.000000
v -19.071329 29.101436 -3.793523
v -17.964799 29.101436 -7.441263
v -16.167892 29.101436 -10.803040
v -13.749662 29.101436 -13.749662
v -10.803040 29.101436 -16.167892
v -7.441263 29.101436 -17.964799
v -3.793523 29.101436 -19.071329
v -0.000000 29.101436 -19.444958
v 3.793523 29.101436 -19.071329
v 7.441263 29.101436 -17.964799
v 10.803040 29.101436 -16.167892
v 13.749662 29.101436 -13.749662
v 16.167892 29.101436 -10.803040
v 17.964799 29.101436 -7.441263
v 19.071329 29.101436 -3.793523
v 24.748737 24.748737 0.000000
v 24.273197 24.748737 4.828239
v 22.864852 24.748737 9.470932
v 20.577823 24.748737 13.749662
v 17.500000 24.748737 17.500000
v 13.749662 24.748737 20.577823
v 9.470932 24.748737 22.864852
v 4.828239 24.748737 24.273197
v 0.000000 24.748737 24.748737
v -4.828239 24.748737 24.273197
v -9.470932 24.748737 22.864852
v -13.749662 24.748737 20.577823
v -17.500000 24.748737 17.500000
v -20.577823 24.748737 13.749662
v -22.864852 24.748737 9.470932
v -24.273197 24.748737 4.828239
v -24.748737 24.748737 0.000000
v -24.273197 24.748737 -4.828239
v -22.864852 24.748737 -9.470932
v -20.577823 24.748737 -13.749662
v -17.500000 24.748737 -17.500000
v -13.749662 24.748737 -20.577823
v -9.470932 24.748737 -22.864852
v -4.828239 24.748737 -24.273197
v -0.000000 24.748737 -24.748737
v 4.828239 24.748737 -24.273197
v 9.470932 24.748737 -22.864852
v 13.749662 24.748737 -20.577823
v 17.500000 24.748737 -17.500000
v 20.577823 24.748737 -13.749662
v 22.864852 24.748737 -9.470932
v 24.273197 24.748737 -4.828239
v 29.101436 19.444958 0.000000
v 28.542260 19.444958 5.677409
v 26.886221 19.444958 11.136638
v 24.196960 19.444958 16.167892
v 20.577823 19.444958 20.577823
v 16.167892 19.444958 24.196960
v 11.136638 19.444958 26.886221
v 5.677409 19.444958 28.542260
v 0.000000 19.444958 29.101436
v -5.677409 19.444958 28.542260
v -11.136638 19.444958 26.886221
v -16.167892 19.444958 24.196960
v -20.577823 19.444958 20.577823
v -24.196960 19.444958 16.167892
v -26.886221 19.444958 11.136638
v -28.542260 19.444958 5.677409
v -29.101436 19.444958 0.000000
v -28.542260 19.444958 -5.677409
v -26.886221 19.444958 -11.136638
v -24.196960 19.444958 -16.167892
v -20.577823 19.444958 -20.577823
v -16.167892 19.444958 -24.196960
v -11.136638 19.444958 -26.886221
v -5.677409 19.444958 -28.542260
v -0.000000 19.444958 -29.101436
v 5.677409 19.444958 -28.542260
v 11.136638 19.444958 -26.886221
v 16.167892 19.444958 -24.196960
v 20.577823 19.444958 -20.577823
v 24.196960 19.444958 -16.167892
v 26.886221 19.444958 -11.136638
v 28.542260 19.444958 -5.677409
v 32.335784 13.393920 0.000000
v 31.714461 13.393920 6.308398
v 29.874369 13.393920 12.374369
v 26.886221 13.393920 17.964799
v 22.864852 13.393920 22.864852
v 17.964799 13.393920 26.886221
v 12.374369 13.393920 29.874369
v 6.308398 13.393920 31.714461
v 0.000000 13.393920 32.335784
v -6.308398 13.393920 31.714461
v -12.374369 13.393920 29.874369
v -17.964799 13.393920 26.886221
v -22.864852 13.393920 22.864852
v -26.886221 13.393920 17.964799
v -29.874369 13.393920 12.374369
v -31.714461 13.393920 6.308398
v -32.335784 13.393920 0.000000
v -31.714461 13.393920 -6.308398
v -29.874369 13.393920 -12.374369
v -26.886221 13.393920 -17.964799
v -22.864852 13.393920 -22.864852
v -17.964799 13.393920 -26.886221
v -12.374369 13.393920 -29.874369
v -6.308398 13.393920 -31.714461
v -0.000000 13.393920 -32.335784
v 6.308398 13.393920 -31.714461
v 12.374369 13.393920 -29.874369
v 17.964799 13.393920 -26.886221
v 22.864852 13.393920 -22.864852
v 26.886221 13.393920 -17.964799
v 29.874369 13.393920 -12.374369
v 31.714461 13.393920 -6.308398
v 34.327485 6.828161 0.000000
v 33.667892 6.828161 6.696960
v 31.714461 6.828161 13.136560
v 28.542260 6.828161 19.071329
v 24.273197 6.828161 24.273197
v 19.071329 6.828161 28.542260
v 13.136560 6.828161 31.714461
v 6.696960 6.828161 33.667892
v 0.000000 6.828161 34.327485
v -6.696960 6.828161 33.667892
v -13.136560 6.828161 31.714461
v -19.071329 6.828161 28.542260
v -24.273197 6.828161 24.273197
v -28.542260 6.828161 19.071329
v -31.714461 6.828161 13.136560
v -33.667892 6.828161 6.696960
v -34.327485 6.828161 0.000000
v -33.667892 6.828161 -6.696960
v -31.714461 6.828161 -13.136560
v -28.542260 6.828161 -19.071329
v -24.273197 6.828161 -24.273197
v -19.071329 6.828161 -28.542260
v -13.136560 6.828161 -31.714461
v -6.696960 6.828161 -33.667892
v -0.000000 6.828161 -34.327485
v 6.696960 6.828161 -33.667892
v 13.136560 6.828161 -31.714461
v 19.071329 6.828161 -28.542260
v 24.273197 6.828161 -24.273197
v 28.542260 6.828161 -19.071329
v 31.714461 6.828161 -13.136560
v 33.667892 6.828161 -6.696960
v 35.000000 0.000000 0.000000
v 34.327485 0.000000 6.828161
v 32.335784 0.000000 13.393920
v 29.101436 0.000000 19.444958
v 24.748737 0.000000 24.748737
v 19.444958 0.000000 29.101436
v 13.393920 0.000000 32.335784
v 6.828161 0.000000 34.327485
v 0.000000 0.000000 35.000000
v -6.828161 0.000000 34.327485
v -13.393920 0.000000 32.335784
v -19.444958 0.000000 29.101436
v -24.748737 0.000000 24.748737
v -29.101436 0.000000 19.444958
v -32.335784 0.000000 13.393920
v -34.327485 0.000000 6.828161
v -35.000000 0.000000 0.000000
v -34.327485 0.000000 -6.828161
v -32.335784 0.000000 -13.393920
v -29.101436 0.000000 -19.444958
v -24.748737 0.000000 -24.748737
v -19.444958 0.000000 -29.101436
v -13.393920 0.000000 -32.335784
v -6.828161 0.000000 -34.327485
v -0.000000 0.000000 -35.000000
v 6.828161 0.000000 -34.327485
v 13.393920 0.000000 -32.335784
v 19.444958 0.000000 -29.101436
v 24.748737 0.000000 -24.748737
v 29.101436 0.000000 -19.444958
v 32.335784 0.000000 -13.393920
v 34.327485 0.000000 -6.828161
v 34.327485 -6.828161 0.000000
v 33.667892 -6.828161 6.696960
v 31.714461 -6.828161 13.136560
v 28.542260 -6.828161 19.071329
v 24.273197 -6.828161 24.273197
v 19.071329 -6.828161 28.542260
v 13.136560 -6.828161 31.714461
v 6.696960 -6.828161 33.667892
v 0.000000 -6.828161 34.327485
v -6.696960 -6.828161 33.667892
v -13.136560 -6.828161 31.714461
v -19.071329 -6.828161 28.542260
v -24.273197 -6.828161 24.273197
v -28.542260 -6.828161 19.071329
v -31.714461 -6.828161 13.136560
v -33.667892 -6.828161 6.696960
v -34.327485 -6.828161 0.000000
v -33.667892 -6.828161 -6.696960
v -31.714461 -6.828161 -13.136560
v -28.542260 -6.828161 -19.071329
v -24.273197 -6.828161 -24.273197
v -19.071329 -6.828161 -28.542260
v -13.136560 -6.828161 -31.714461
v -6.696960 -6.828161 -33.667892
v -0.000000 -6.828161 -34.327485
v 6.696960 -6.828161 -33.667892
v 13.136560 -6.828161 -31.714461
v 19.071329 -6.828161 -28.542260
v 24.273197 -6.828161 -24.273197
v 28.542260 -6.828161 -19.071329
v 31.714461 -6.828161 -13.136560
v 33.667892 -6.828161 -6.696960
v 32.335784 -13.393920 0.000000
v 31.714461 -13.393920 6.308398
v 29.874369 -13.393920 12.374369
v 26.886221 -13.393920 17.964799
v 22.864852 -13.393920 22.864852
v 17.964799 -13.393920 26.886221
v 12.374369 -13.393920 29.874369
v 6.308398 -13.393920 31.714461
v 0.000000 -13.393920 32.335784
v -6.308398 -13.393920 31.714461
v -12.374369 -13.393920 29.874369
v -17.964799 -13.393920 26.886221
v -22.864852 -13.393920 22.864852
v -26.886221 -13.393920 17.964799
v -29.874369 -13.393920 12.374369
v -31.714461 -13.393920 6.308398
v -32.335784 -13.393920 0.000000
v -31.714461 -13.393920 -6.308398
v -29.874369 -13.393920 -12.374369
v -26.886221 -13.393920 -17.964799
v -22.864852 -13.393920 -22.864852
v -17.964799 -13.393920 -26.886221
v -12.374369 -13.393920 -29.874369
v -6.308398 -13.393920 -31.714461
v -0.000000 -13.393920 -32.335784
v 6.308398 -13.393920 -31.714461
v 12.374369 -13.393920 -29.874369
v 17.964799 -13.393920 -26.886221
v 22.864852 -13.393920 -22.864852
v 26.886221 -13.393920 -17.964799
v 29.874369 -13.393920 -12.374369
v 31.714461 -13.393920 -6.308398
v 29.101436 -19.444958 0.000000
v 28.542260 -19.444958 5.677409
v 26.886221 -19.444958 11.136638
v 24.196960 -19.444958 16.167892
v 20.577823 -19.444958 20.577823
v 16.167892 -19.444958 24.196960
v 11.136638 -19.444958 26.886221
v 5.677409 -19.444958 28.542260
v 0.000000 -19.444958 29.101436
v -5.677409 -19.444958 28.542260
v -11.136638 -19.444958 26.886221
v -16.167892 -19.444958 24.196960
v -20.577823 -19.444958 20.577823
v -24.196960 -19.444958 16.167892
v -26.886221 -19.444958 11.136638
v -28.542260 -19.444958 5.677409
v -29.101436 -19.444958 0.000000
v -28.542260 -19.444958 -5.677409
v -26.886221 -19.444958 -11.136638
v -24.196960 -19.444958 -16.167892
v -20.577823 -19.444958 -20.577823
v -16.167892 -19.444958 -24.196960
v -11.136638 -19.444958 -26.886221
v -5.677409 -19.444958 -28.542260
v -0.000000 -19.444958 -29.101436
v 5.677409 -19.444958 -28.542260
v 11.136638 -19.444958 -26.886221
v 16.167892 -19.444958 -24.196960
v 20.577823 -19.444958 -20.577823
v 24.196960 -19.444958 -16.167892
v 26.886221 -19.444958 -11.136638
v 28.542260 -19.444958 -5.677409
v 24.748737 -24.748737 0.000000
v 24.273197 -24.748737 4.828239
v 22.864852 -24.748737 9.470932
v 20.577823 -24.748737 13.749662
v 17.500000 -24.748737 17.500000
v 13.749662 -24.748737 20.577823
v 9.470932 -24.748737 22.864852
v 4.828239 -24.748737 24.273197
v 0.000000 -24.748737 24.748737
v -4.828239 -24.748737 24.273197
v -9.470932 -24.748737 22.864852
v -13.749662 -24.748737 20.577823
v -17.500000 -24.748737 17.500000
v -20.577823 -24.748737 13.749662
v -22.864852 -24.748737 9.470932
v -24.273197 -24.748737 4.828239
v -24.748737 -24.748737 0.000000
v -24.273197 -24.748737 -4.828239
v -22.864852 -24.748737 -9.470932
v -20.577823 -24.748737 -13.749662
v -17.500000 -24.748737 -17.500000
v -13.749662 -24.748737 -20.577823
v -9.470932 -24.748737 -22.864852
v -4.828239 -24.748737 -24.273197
v -0.000000 -24.748737 -24.748737
v 4.828239 -24.748737 -24.273197
v 9.470932 -24.748737 -22.864852
v 13.749662 -24.748737 -20.577823
v 17.500000 -24.748737 -17.500000
v 20.577823 -24.748737 -13.749662
v 22.864852 -24.748737 -9.470932
v 24.273197 -24.748737 -4.828239
v 19.444958 -29.101436 0.000000
v 19.071329 -29.101436 3.793523
v 17.964799 -29.101436 7.441263
v 16.167892 -29.101436 10.803040
v 13.749662 -29.101436 13.749662
v 10.803040 -29.101436 16.167892
v 7.441263 -29.101436 17.964799
v 3.793523 -29.101436 19.071329
v 0.000000 -29.101436 19.444958
v -3.793523 -29.101436 19.071329
v -7.441263 -29.101436 17.964799
v -10.803040 -29.101436 16.167892
v -13.749662 -29.101436 13.749662
v -16.167892 -29.101436 10.803040
v -17.964799 -29.101436 7.441263
v -19.071329 -29.101436 3.793523
v -19.444958 -29.101436 0.000000
v -19.071329 -29.101436 -3.793523
v -17.964799 -29.101436 -7.441263
v -16.167892 -29.101436 -10.803040
v -13.749662 -29.101436 -13.749662
v -10.803040 -29.101436 -16.167892
v -7.441263 -29.101436 -17.964799
v -3.793523 -29.101436 -19.071329
v -0.000000 -29.101436 -19.444958
v 3.793523 -29.101436 -19.071329
v 7.441263 -29.101436 -17.964799
v 10.803040 -29.101436 -16.167892
v 13.749662 -29.101436 -13.749662
v 16.167892 -29.101436 -10.803040
v 17.964799 -29.101436 -7.441263
v 19.071329 -29.101436 -3.793523
v 13.393920 -32.335784 0.000000
v 13.136560 -32.335784 2.613024
v 12.374369 -32.335784 5.125631
v 11.136638 -32.335784 7.441263
v 9.470932 -32.335784 9.470932
v 7.441263 -32.335784 11.136638
v 5.125631 -32.335784 12.374369
v 2.613024 -32.335784 13.136560
v 0.000000 -32.335784 13.393920
v -2.613024 -32.335784 13.136560
v -5.125631 -32.335784 12.374369
v -7.441263 -32.335784 11.136638
v -9.470932 -32.335784 9.470932
v -11.136638 -32.335784 7.441263
v -12.374369 -32.335784 5.125631
v -13.136560 -32.335784 2.613024
v -13.393920 -32.335784 0.000000
v -13.136560 -32.335784 -2.613024
v -12.374369 -32.335784 -5.125631
v -11.136638 -32.335784 -7.441263
v -9.470932 -32.335784 -9.470932
v -7.441263 -32.335784 -11.136638
v -5.125631 -32.335784 -12.374369
v -2.613024 -32.335784 -13.136560
v -0.000000 -32.335784 -13.393920
v 2.613024 -32.335784 -13.136560
v 5.125631 -32.335784 -12.374369
v 7.441263 -32.335784 -11.136638
v 9.470932 -32.335784 -9.470932
v 11.136638 -32.335784 -7.441263
v 12.374369 -32.335784 -5.125631
v 13.136560 -32.335784 -2.613024
v 6.828161 -34.327485 0.000000
v 6.696960 -34.327485 1.332108
v 6.308398 -34.327485 2.613024
v 5.677409 -34.327485 3.793523
v 4.828239 -34.327485 4.828239
v 3.793523 -34.327485 5.677409
v 2.613024 -34.327485 6.308398
v 1.332108 -34.327485 6.696960
v 0.000000 -34.327485 6.828161
v -1.332108 -34.327485 6.696960
v -2.613024 -34.327485 6.308398
v -3.793523 -34.327485 5.677409
v -4.828239 -34.327485 4.828239
v -5.677409 -34.327485 3.793523
v -6.308398 -34.327485 2.613024
v -6.696960 -34.327485 1.332108
v -6.828161 -34.327485 0.000000
v -6.696960 -34.327485 -1.332108
v -6.308398 -34.327485 -2.613024
v -5.677409 -34.327485 -3.793523
v -4.828239 -34.327485 -4.828239
v -3.793523 -34.327485 -5.677409
v -2.613024 -34.327485 -6.308398
v -1.332108 -34.327485 -6.696960
v -0.000000 -34.327485 -6.828161
v 1.332108 -34.327485 -6.696960
v 2.613024 -34.327485 -6.308398
v 3.793523 -34.327485 -5.677409
v 4.828239 -34.327485 -4.828239
v 5.677409 -34.327485 -3.793523
v 6.308398 -34.327485 -2.613024
v 6.696960 -34.327485 -1.332108
v 0.000000 -35.000000 0.000000
v 49.784433 3.279497 3.279497
v -49.784433 -3.279497 3.279497
v -0.637116 49.575694 -6.468742
v 5.732525 -49.575694 3.064098
v 3.279497 -3.279497 49.784433
v -3.279497 -3.279497 -49.784433
vn 0.00686571 0.99754376 0.06970872
vn 0.22674567 0.97390818 0.00944745
vn 0.22054571 0.97390818 0.05350181
vn 0.20587030 0.97390818 0.09550012
vn 0.18328341 0.97390818 0.13382841
vn 0.15365304 0.97390818 0.16701376
vn 0.11811788 0.97390818 0.19378086
vn 0.07804350 0.97390818 0.21310107
vn 0.03496996 0.97390818 0.22423192
vn -0.00944745 0.97390818 0.22674567
vn -0.05350181 0.97390818 0.22054571
vn -0.09550012 0.97390818 0.20587030
vn -0.13382841 0.97390818 0.18328341
vn -0.16701376 0.97390818 0.15365304
vn -0.19378086 0.97390818 0.11811788
vn -0.21310107 0.97390818 0.07804350
vn -0.22423192 0.97390818 0.03496996
vn -0.22674567 0.97390818 -0.00944745
vn -0.22054571 0.97390818 -0.05350181
vn -0.20587030 0.97390818 -0.09550012
vn -0.18328341 0.97390818 -0.13382841
vn -0.15365304 0.97390818 -0.16701376
vn -0.11811788 0.97390818 -0.19378086
vn -0.07804350 0.97390818 -0.21310107
vn -0.90443829 0.41463025 -0.10036501
vn 0.86962440 0.41149722 -0.27280660
vn 0.05350181 0.97390818 -0.22054571
vn 0.09550012 0.97390818 -0.20587030
vn 0.13382841 0.97390818 -0.18328341
vn 0.16701376 0.97390818 -0.15365304
vn 0.19378086 0.97390818 -0.11811788
vn 0.21310107 0.97390818 -0.07804350
vn 0.22423192 0.97390818 -0.03496996
vn 0.39699749 0.91777651 0.00890294
vn 0.38763242 0.91777651 0.08618224
vn 0.36337085 0.91777651 0.16014961
vn 0.32514514 0.91777651 0.22796251
vn 0.27442429 0.91777651 0.28701495
vn 0.21315746 0.91777651 0.33503756
vn 0.14369911 0.91777651 0.37018486
vn 0.06871849 0.91777651 0.39110617
vn -0.00890294 0.91777651 0.39699749
vn -0.08618224 0.91777651 0.38763242
vn -0.16014961 0.91777651 0.36337085
vn -0.22796251 0.91777651 0.32514514
vn -0.28701495 0.91777651 0.27442429
vn -0.33503756 0.91777651 0.21315746
vn -0.37018486 0.91777651 0.14369911
vn -0.39110617 0.91777651 0.06871849
vn -0.39699749 0.91777651 -0.00890294
vn -0.38763242 0.91777651 -0.08618224
vn -0.36337085 0.91777651 -0.16014961
vn -0.32514514 0.91777651 -0.22796251
vn -0.27442429 0.91777651 -0.28701495
vn -0.21315746 0.91777651 -0.33503756
vn -0.14369911 0.91777651 -0.37018486
vn -0.06871849 0.91777651 -0.39110617
vn 0.00890294 0.91777651 -0.39699749
vn 0.08618224 0.91777651 -0.38763242
vn 0.16014961 0.91777651 -0.36337085
vn 0.22796251 0.91777651 -0.32514514
vn 0.28701495 0.91777651 -0.27442429
vn 0.33503756 0.91777651 -0.21315746
vn 0.37018486 0.91777651 -0.14369911
vn 0.39110617 0.91777651 -0.06871849
vn 0.56354744 0.82604484 0.00801309
vn 0.55115576 0.82604484 0.11780178
vn 0.51758347 0.82604484 0.22306340
vn 0.46412074 0.82604484 0.31975283
vn 0.39282210 0.82604484 0.40415433
vn 0.30642754 0.82604484 0.47302441
vn 0.20825714 0.82604484 0.52371643
vn 0.10208353 0.82604484 0.55428231
vn -0.00801309 0.82604484 0.56354744
vn -0.11780178 0.82604484 0.55115576
vn -0.22306340 0.82604484 0.51758347
vn -0.31975283 0.82604484 0.46412074
vn -0.40415433 0.82604484 0.39282210
vn -0.47302441 0.82604484 0.30642754
vn -0.52371643 0.82604484 0.20825714
vn -0.55428231 0.82604484 0.10208353
vn -0.56354744 0.82604484 -0.00801309
vn -0.55115576 0.82604484 -0.11780178
vn -0.51758347 0.82604484 -0.22306340
vn -0.46412074 0.82604484 -0.31975283
vn -0.39282210 0.82604484 -0.40415433
vn -0.30642754 0.82604484 -0.47302441
vn -0.20825714 0.82604484 -0.52371643
vn -0.10208353 0.82604484 -0.55428231
vn 0.00801309 0.82604484 -0.56354744
vn 0.11780178 0.82604484 -0.55115576
vn 0.22306340 0.82604484 -0.51758347
vn 0.31975283 0.82604484 -0.46412074
vn 0.40415433 0.82604484 -0.39282210
vn 0.47302441 0.82604484 -0.30642754
vn 0.52371643 0.82604484 -0.20825714
vn 0.55428231 0.82604484 -0.10208353
vn 0.71163362 0.70251772 0.00681481
vn 0.69663027 0.70251772 0.14551670
vn 0.65485582 0.70251772 0.27862646
vn 0.58791562 0.70251772 0.40102876
vn 0.49838216 0.70251772 0.50801976
vn 0.38969614 0.70251772 0.59548784
vn 0.26603433 0.70251772 0.66007165
vn 0.13214896 0.70251772 0.69928928
vn -0.00681481 0.70251772 0.71163362
vn -0.14551670 0.70251772 0.69663027
vn -0.27862646 0.70251772 0.65485582
vn -0.40102876 0.70251772 0.58791562
vn -0.50801976 0.70251772 0.49838216
vn -0.59548784 0.70251772 0.38969614
vn -0.66007165 0.70251772 0.26603433
vn -0.69928928 0.70251772 0.13214896
vn -0.71163362 0.70251772 -0.00681481
vn -0.69663027 0.70251772 -0.14551670
vn -0.65485582 0.70251772 -0.27862646
vn -0.58791562 0.70251772 -0.40102876
vn -0.49838216 0.70251772 -0.50801976
vn -0.38969614 0.70251772 -0.59548784
vn -0.26603433 0.70251772 -0.66007165
vn -0.13214896 0.70251772 -0.69928928
vn 0.00681481 0.70251772 -0.71163362
vn 0.14551670 0.70251772 -0.69663027
vn 0.27862646 0.70251772 -0.65485582
vn 0.40102876 0.70251772 -0.58791562
vn 0.50801976 0.70251772 -0.49838216
vn 0.59548784 0.70251772 -0.38969614
vn 0.66007165 0.70251772 -0.26603433
vn 0.69928928 0.70251772 -0.13214896
vn 0.83384288 0.55197589 0.00535447
vn 0.81677622 0.55197589 0.16792626
vn 0.76832130 0.55197589 0.32404474
vn 0.69034023 0.55197589 0.46771037
vn 0.58582977 0.55197589 0.59340214
vn 0.45880620 0.55197589 0.69628980
vn 0.31415097 0.55197589 0.77241944
vn 0.15742309 0.55197589 0.81886543
vn -0.00535447 0.55197589 0.83384288
vn -0.16792626 0.55197589 0.81677622
vn -0.32404474 0.55197589 0.76832130
vn -0.46771037 0.55197589 0.69034023
vn -0.59340214 0.55197589 0.58582977
vn -0.69628980 0.55197589 0.45880620
vn -0.77241944 0.55197589 0.31415097
vn -0.81886543 0.55197589 0.15742309
vn -0.83384288 0.55197589 -0.00535447
vn -0.81677622 0.55197589 -0.16792626
vn -0.76832130 0.55197589 -0.32404474
vn -0.69034023 0.55197589 -0.46771037
vn -0.58582977 0.55197589 -0.59340214
vn -0.45880620 0.55197589 -0.69628980
vn -0.31415097 0.55197589 -0.77241944
vn -0.15742309 0.55197589 -0.81886543
vn 0.00535447 0.55197589 -0.83384288
vn 0.16792626 0.55197589 -0.81677622
vn 0.32404474 0.55197589 -0.76832130
vn 0.46771037 0.55197589 -0.69034023
vn 0.59340214 0.55197589 -0.58582977
vn 0.69628980 0.55197589 -0.45880620
vn 0.77241944 0.55197589 -0.31415097
vn 0.81886543 0.55197589 -0.15742309
vn 0.92489175 0.38021264 0.00368827
vn 0.90640067 0.38021264 0.18405483
vn 0.85307711 0.38021264 0.35734827
vn 0.76697029 0.38021264 0.51690901
vn 0.65138922 0.38021264 0.65660523
vn 0.51077564 0.38021264 0.77106848
vn 0.35053323 0.38021264 0.85590000
vn 0.17682002 0.38021264 0.90783976
vn -0.00368827 0.38021264 0.92489175
vn -0.18405483 0.38021264 0.90640067
vn -0.35734827 0.38021264 0.85307711
vn -0.51690901 0.38021264 0.76697029
vn -0.65660523 0.38021264 0.65138922
vn -0.77106848 0.38021264 0.51077564
vn -0.85590000 0.38021264 0.35053323
vn -0.90783976 0.38021264 0.17682002
vn -0.92489175 0.38021264 -0.00368827
vn -0.90640067 0.38021264 -0.18405483
vn -0.85307711 0.38021264 -0.35734827
vn -0.76697029 0.38021264 -0.51690901
vn -0.65138922 0.38021264 -0.65660523
vn -0.51077564 0.38021264 -0.77106848
vn -0.35053323 0.38021264 -0.85590000
vn -0.17682002 0.38021264 -0.90783976
vn 0.00368827 0.38021264 -0.92489175
vn 0.18405483 0.38021264 -0.90640067
vn 0.35734827 0.38021264 -0.85307711
vn 0.51690901 0.38021264 -0.76697029
vn 0.65660523 0.38021264 -0.65138922
vn 0.77106848 0.38021264 -0.51077564
vn 0.85590000 0.38021264 -0.35053323
vn 0.90783976 0.38021264 -0.17682002
vn 0.84355741 0.53700739 -0.00582777
vn 0.96181579 0.19383223 0.19323417
vn 0.90563666 0.19383223 0.37716219
vn 0.81465441 0.19383223 0.54659607
vn 0.69236545 0.19383223 0.69502457
vn 0.54346928 0.19383223 0.81674366
vn 0.37368788 0.19383223 0.90707576
vn 0.18954587 0.19383223 0.96254944
vn -0.00188028 0.19383223 0.98103289
vn -0.19323417 0.19383223 0.96181579
vn -0.37716219 0.19383223 0.90563666
vn -0.54659607 0.19383223 0.81465441
vn -0.69502457 0.19383223 0.69236545
vn -0.81674366 0.19383223 0.54346928
vn -0.90707576 0.19383223 0.37368788
vn -0.96254944 0.19383223 0.18954587
vn -0.98103289 0.19383223 -0.00188028
vn -0.96181579 0.19383223 -0.19323417
vn -0.90563666 0.19383223 -0.37716219
vn -0.81465441 0.19383223 -0.54659607
vn -0.69236545 0.19383223 -0.69502457
vn -0.54346928 0.19383223 -0.81674366
vn -0.37368788 0.19383223 -0.90707576
vn -0.18954587 0.19383223 -0.96254944
vn 0.00188028 0.19383223 -0.98103289
vn 0.19323417 0.19383223 -0.96181579
vn 0.37716219 0.19383223 -0.90563666
vn 0.54659607 0.19383223 -0.81465441
vn 0.69502457 0.19383223 -0.69236545
vn 0.81674366 0.19383223 -0.54346928
vn 0.90707576 0.19383223 -0.37368788
vn 0.96254944 0.19383223 -0.18954587
vn 0.87969401 -0.33625767 -0.33625767
vn 0.84645732 -0.00746100 0.53240429
vn 0.92387953 -0.00000000 0.38268343
vn 0.83146961 -0.00000000 0.55557023
vn 0.70710678 -0.00000000 0.70710678
vn 0.55557023 0.00000000 0.83146961
vn 0.38268343 0.00000000 0.92387953
vn 0.53240429 0.00746100 0.84645732
vn -0.33625767 0.33625767 0.87969401
vn -0.19509032 0.00000000 0.98078528
vn -0.38268343 -0.00000000 0.92387953
vn -0.55557023 -0.00000000 0.83146961
vn -0.70710678 0.00000000 0.70710678
vn -0.83146961 0.00000000 0.55557023
vn -0.92387953 0.00000000 0.38268343
vn -0.84645732 0.00746100 0.53240429
vn -0.87969401 0.33625767 -0.33625767
vn -0.98078528 0.00000000 -0.19509032
vn -0.92387953 -0.00000000 -0.38268343
vn -0.83146961 0.00000000 -0.55557023
vn -0.70710678 0.00000000 -0.70710678
vn -0.55557023 0.00000000 -0.83146961
vn -0.38268343 -0.00000000 -0.92387953
vn -0.53240429 0.00746100 -0.84645732
vn 0.33625767 0.33625767 -0.87969401
vn 0.19509032 -0.00000000 -0.98078528
vn 0.38268343 0.00000000 -0.92387953
vn 0.55557023 -0.00000000 -0.83146961
vn 0.70710678 -0.00000000 -0.70710678
vn 0.83146961 0.00000000 -0.55557023
vn 0.92387953 -0.00000000 -0.38268343
vn 0.98078528 -0.00000000 -0.19509032
vn 0.98103289 -0.19383223 -0.00188028
vn 0.96254944 -0.19383223 0.18954587
vn 0.90707576 -0.19383223 0.37368788
vn 0.81674366 -0.19383223 0.54346928
vn 0.69502457 -0.19383223 0.69236545
vn 0.54659607 -0.19383223 0.81465441
vn 0.37716219 -0.19383223 0.90563666
vn 0.19323417 -0.19383223 0.96181579
vn -0.00582777 -0.53700739 0.84355741
vn -0.18954587 -0.19383223 0.96254944
vn -0.37368788 -0.19383223 0.90707576
vn -0.54346928 -0.19383223 0.81674366
vn -0.69236545 -0.19383223 0.69502457
vn -0.81465441 -0.19383223 0.54659607
vn -0.90563666 -0.19383223 0.37716219
vn -0.96181579 -0.19383223 0.19323417
vn -0.84355741 -0.53700739 -0.00582777
vn -0.96254944 -0.19383223 -0.18954587
vn -0.90707576 -0.19383223 -0.37368788
vn -0.81674366 -0.19383223 -0.54346928
vn -0.69502457 -0.19383223 -0.69236545
vn -0.54659607 -0.19383223 -0.81465441
vn -0.37716219 -0.19383223 -0.90563666
vn -0.19323417 -0.19383223 -0.96181579
vn 0.00582777 -0.53700739 -0.84355741
vn 0.18954587 -0.19383223 -0.96254944
vn 0.37368788 -0.19383223 -0.90707576
vn 0.54346928 -0.19383223 -0.81674366
vn 0.69236545 -0.19383223 -0.69502457
vn 0.81465441 -0.19383223 -0.54659607
vn 0.90563666 -0.19383223 -0.37716219
vn 0.96181579 -0.19383223 -0.19323417
vn 0.92489175 -0.38021264 -0.00368827
vn 0.90783976 -0.38021264 0.17682002
vn 0.85590000 -0.38021264 0.35053323
vn 0.77106848 -0.38021264 0.51077564
vn 0.65660523 -0.38021264 0.65138922
vn 0.51690901 -0.38021264 0.76697029
vn 0.35734827 -0.38021264 0.85307711
vn 0.18405483 -0.38021264 0.90640067
vn 0.00368827 -0.38021264 0.92489175
vn -0.17682002 -0.38021264 0.90783976
vn -0.35053323 -0.38021264 0.85590000
vn -0.51077564 -0.38021264 0.77106848
vn -0.65138922 -0.38021264 0.65660523
vn -0.76697029 -0.38021264 0.51690901
vn -0.85307711 -0.38021264 0.35734827
vn -0.90640067 -0.38021264 0.18405483
vn -0.92489175 -0.38021264 0.00368827
vn -0.90783976 -0.38021264 -0.17682002
vn -0.85590000 -0.38021264 -0.35053323
vn -0.77106848 -0.38021264 -0.51077564
vn -0.65660523 -0.38021264 -0.65138922
vn -0.51690901 -0.38021264 -0.76697029
vn -0.35734827 -0.38021264 -0.85307711
vn -0.18405483 -0.38021264 -0.90640067
vn -0.00368827 -0.38021264 -0.92489175
vn 0.17682002 -0.38021264 -0.90783976
vn 0.35053323 -0.38021264 -0.85590000
vn 0.51077564 -0.38021264 -0.77106848
vn 0.65138922 -0.38021264 -0.65660523
vn 0.76697029 -0.38021264 -0.51690901
vn 0.85307711 -0.38021264 -0.35734827
vn 0.90640067 -0.38021264 -0.18405483
vn 0.83384288 -0.55197589 -0.00535447
vn 0.81886543 -0.55197589 0.15742309
vn 0.77241944 -0.55197589 0.31415097
vn 0.69628980 -0.55197589 0.45880620
vn 0.59340214 -0.55197589 0.58582977
vn 0.46771037 -0.55197589 0.69034023
vn 0.32404474 -0.55197589 0.76832130
vn 0.16792626 -0.55197589 0.81677622
vn 0.00535447 -0.55197589 0.83384288
vn -0.15742309 -0.55197589 0.81886543
vn -0.31415097 -0.55197589 0.77241944
vn -0.45880620 -0.55197589 0.69628980
vn -0.58582977 -0.55197589 0.59340214
vn -0.69034023 -0.55197589 0.46771037
vn -0.76832130 -0.55197589 0.32404474
vn -0.81677622 -0.55197589 0.16792626
vn -0.83384288 -0.55197589 0.00535447
vn -0.81886543 -0.55197589 -0.15742309
vn -0.77241944 -0.55197589 -0.31415097
vn -0.69628980 -0.55197589 -0.45880620
vn -0.59340214 -0.55197589 -0.58582977
vn -0.46771037 -0.55197589 -0.69034023
vn -0.32404474 -0.55197589 -0.76832130
vn -0.16792626 -0.55197589 -0.81677622
vn -0.00535447 -0.55197589 -0.83384288
vn 0.15742309 -0.55197589 -0.81886543
vn 0.31415097 -0.55197589 -0.77241944
vn 0.45880620 -0.55197589 -0.69628980
vn 0.58582977 -0.55197589 -0.59340214
vn 0.69034023 -0.55197589 -0.46771037
vn 0.76832130 -0.55197589 -0.32404474
vn 0.81677622 -0.55197589 -0.16792626
vn 0.71163362 -0.70251772 -0.00681481
vn 0.69928928 -0.70251772 0.13214896
vn 0.66007165 -0.70251772 0.26603433
vn 0.59548784 -0.70251772 0.38969614
vn 0.50801976 -0.70251772 0.49838216
vn 0.40102876 -0.70251772 0.58791562
vn 0.27862646 -0.70251772 0.65485582
vn 0.14551670 -0.70251772 0.69663027
vn 0.00681481 -0.70251772 0.71163362
vn -0.13214896 -0.70251772 0.69928928
vn -0.26603433 -0.70251772 0.66007165
vn -0.38969614 -0.70251772 0.59548784
vn -0.49838216 -0.70251772 0.50801976
vn -0.58791562 -0.70251772 0.40102876
vn -0.65485582 -0.70251772 0.27862646
vn -0.69663027 -0.70251772 0.14551670
vn -0.71163362 -0.70251772 0.00681481
vn -0.69928928 -0.70251772 -0.13214896
vn -0.66007165 -0.70251772 -0.26603433
vn -0.59548784 -0.70251772 -0.38969614
vn -0.50801976 -0.70251772 -0.49838216
vn -0.40102876 -0.70251772 -0.58791562
vn -0.27862646 -0.70251772 -0.65485582
vn -0.14551670 -0.70251772 -0.69663027
vn -0.00681481 -0.70251772 -0.71163362
vn 0.13214896 -0.70251772 -0.69928928
vn 0.26603433 -0.70251772 -0.66007165
vn 0.38969614 -0.70251772 -0.59548784
vn 0.49838216 -0.70251772 -0.50801976
vn 0.58791562 -0.70251772 -0.40102876
vn 0.65485582 -0.70251772 -0.27862646
vn 0.69663027 -0.70251772 -0.14551670
vn 0.56354744 -0.82604484 -0.00801309
vn 0.55428231 -0.82604484 0.10208353
vn 0.52371643 -0.82604484 0.20825714
vn 0.47302441 -0.82604484 0.30642754
vn 0.40415433 -0.82604484 0.39282210
vn 0.31975283 -0.82604484 0.46412074
vn 0.22306340 -0.82604484 0.51758347
vn 0.11780178 -0.82604484 0.55115576
vn 0.00801309 -0.82604484 0.56354744
vn -0.10208353 -0.82604484 0.55428231
vn -0.20825714 -0.82604484 0.52371643
vn -0.30642754 -0.82604484 0.47302441
vn -0.39282210 -0.82604484 0.40415433
vn -0.46412074 -0.82604484 0.31975283
vn -0.51758347 -0.82604484 0.22306340
vn -0.55115576 -0.82604484 0.11780178
vn -0.56354744 -0.82604484 0.00801309
vn -0.55428231 -0.82604484 -0.10208353
vn -0.52371643 -0.82604484 -0.20825714
vn -0.47302441 -0.82604484 -0.30642754
vn -0.40415433 -0.82604484 -0.39282210
vn -0.31975283 -0.82604484 -0.46412074
vn -0.22306340 -0.82604484 -0.51758347
vn -0.11780178 -0.82604484 -0.55115576
vn -0.00801309 -0.82604484 -0.56354744
vn 0.10208353 -0.82604484 -0.55428231
vn 0.20825714 -0.82604484 -0.52371643
vn 0.30642754 -0.82604484 -0.47302441
vn 0.39282210 -0.82604484 -0.40415433
vn 0.46412074 -0.82604484 -0.31975283
vn 0.51758347 -0.82604484 -0.22306340
vn 0.55115576 -0.82604484 -0.11780178
vn 0.39699749 -0.91777651 -0.00890294
vn 0.39110617 -0.91777651 0.06871849
vn 0.37018486 -0.91777651 0.14369911
vn 0.33503756 -0.91777651 0.21315746
vn 0.28701495 -0.91777651 0.27442429
vn 0.22796251 -0.91777651 0.32514514
vn 0.16014961 -0.91777651 0.36337085
vn 0.08618224 -0.91777651 0.38763242
vn 0.00890294 -0.91777651 0.39699749
vn -0.06871849 -0.91777651 0.39110617
vn -0.14369911 -0.91777651 0.37018486
vn -0.21315746 -0.91777651 0.33503756
vn -0.27442429 -0.91777651 0.28701495
vn -0.32514514 -0.91777651 0.22796251
vn -0.36337085 -0.91777651 0.16014961
vn -0.38763242 -0.91777651 0.08618224
vn -0.39699749 -0.91777651 0.00890294
vn -0.39110617 -0.91777651 -0.06871849
vn -0.37018486 -0.91777651 -0.14369911
vn -0.33503756 -0.91777651 -0.21315746
vn -0.28701495 -0.91777651 -0.27442429
vn -0.22796251 -0.91777651 -0.32514514
vn -0.16014961 -0.91777651 -0.36337085
vn -0.08618224 -0.91777651 -0.38763242
vn -0.00890294 -0.91777651 -0.39699749
vn 0.06871849 -0.91777651 -0.39110617
vn 0.14369911 -0.91777651 -0.37018486
vn 0.21315746 -0.91777651 -0.33503756
vn 0.27442429 -0.91777651 -0.28701495
vn 0.32514514 -0.91777651 -0.22796251
vn 0.36337085 -0.91777651 -0.16014961
vn 0.38763242 -0.91777651 -0.08618224
vn 0.22674567 -0.97390818 -0.00944745
vn 0.22423192 -0.97390818 0.03496996
vn 0.58483129 -0.41149722 -0.69902962
vn -0.25338837 -0.41463025 0.87400005
vn 0.16701376 -0.97390818 0.15365304
vn 0.13382841 -0.97390818 0.18328341
vn 0.09550012 -0.97390818 0.20587030
vn 0.05350181 -0.97390818 0.22054571
vn 0.00944745 -0.97390818 0.22674567
vn -0.03496996 -0.97390818 0.22423192
vn -0.07804350 -0.97390818 0.21310107
vn -0.11811788 -0.97390818 0.19378086
vn -0.15365304 -0.97390818 0.16701376
vn -0.18328341 -0.97390818 0.13382841
vn -0.20587030 -0.97390818 0.09550012
vn -0.22054571 -0.97390818 0.05350181
vn -0.22674567 -0.97390818 0.00944745
vn -0.22423192 -0.97390818 -0.03496996
vn -0.21310107 -0.97390818 -0.07804350
vn -0.19378086 -0.97390818 -0.11811788
vn -0.16701376 -0.97390818 -0.15365304
vn -0.13382841 -0.97390818 -0.18328341
vn -0.09550012 -0.97390818 -0.20587030
vn -0.05350181 -0.97390818 -0.22054571
vn -0.00944745 -0.97390818 -0.22674567
vn 0.03496996 -0.97390818 -0.22423192
vn 0.07804350 -0.97390818 -0.21310107
vn 0.11811788 -0.97390818 -0.19378086
vn 0.15365304 -0.97390818 -0.16701376
vn 0.18328341 -0.97390818 -0.13382841
vn 0.20587030 -0.97390818 -0.09550012
vn 0.22054571 -0.97390818 -0.05350181
vn -0.06177507 -0.99754376 -0.03301946
vn 0.99043835 0.09754966 0.09754966
vn -0.99043835 -0.09754966 0.09754966
vn -0.00965340 0.99513836 -0.09801257
vn 0.08685762 -0.99513836 0.04642636
vn 0.09754966 -0.09754966 0.99043835
vn -0.09754966 -0.09754966 -0.99043835
s 1
f 1//1 3//3 2//2
f 1//1 4//4 3//3
f 1//1 5//5 4//4
f 1//1 6//6 5//5
f 1//1 7//7 6//6
f 1//1 8//8 7//7
f 1//1 9//9 8//8
f 1//1 10//10 9//9
f 1//1 11//11 10//10
f 1//1 12//12 11//11
f 1//1 13//13 12//12
f 1//1 14//14 13//13
f 1//1 15//15 14//14
f 1//1 16//16 15//15
f 1//1 17//17 16//16
f 1//1 18//18 17//17
f 1//1 19//19 18//18
f 1//1 20//20 19//19
f 1//1 21//21 20//20
f 1//1 22//22 21//21
f 1//1 23//23 22//22
f 1//1 24//24 23//23
f 1//1 25//25 24//24
f 1//1 27//27 26//26
f 1//1 28//28 27//27
f 1//1 29//29 28//28
f 1//1 30//30 29//29
f 1//1 31//31 30//30
f 1//1 32//32 31//31
f 1//1 33//33 32//32
f 1//1 2//2 33//33
f 2//2 35//35 34//34
f 2//2 3//3 35//35
f 3//3 36//36 35//35
f 3//3 4//4 36//36
f 4//4 37//37 36//36
f 4//4 5//5 37//37
f 5//5 38//38 37//37
f 5//5 6//6 38//38
f 6//6 39//39 38//38
f 6//6 7//7 39//39
f 7//7 40//40 39//39
f 7//7 8//8 40//40
f 8//8 41//41 40//40
f 8//8 9//9 41//41
f 9//9 42//42 41//41
f 9//9 10//10 42//42
f 10//10 43//43 42//42
f 10//10 11//11 43//43
f 11//11 44//44 43//43
f 11//11 12//12 44//44
f 12//12 45//45 44//44
f 12//12 13//13 45//45
f 13//13 46//46 45//45
f 13//13 14//14 46//46
f 14//14 47//47 46//46
f 14//14 15//15 47//47
f 15//15 48//48 47//47
f 15//15 16//16 48//48
f 16//16 49//49 48//48
f 16//16 17//17 49//49
f 17//17 50//50 49//49
f 17//17 18//18 50//50
f 18//18 51//51 50//50
f 18//18 19//19 51//51
f 19//19 52//52 51//51
f 19//19 20//20 52//52
f 20//20 53//53 52//52
f 20//20 21//21 53//53
f 21//21 54//54 53//53
f 21//21 22//22 54//54
f 22//22 55//55 54//54
f 22//22 23//23 55//55
f 23//23 56//56 55//55
f 23//23 24//24 56//56
f 24//24 57//57 56//56
f 24//24 25//25 57//57
f 25//25 58//58 57//57
f 25//25 26//26 58//58
f 26//26 59//59 58//58
f 26//26 27//27 59//59
f 27//27 60//60 59//59
f 27//27 28//28 60//60
f 28//28 61//61 60//60
f 28//28 29//29 61//61
f 29//29 62//62 61//61
f 29//29 30//30 62//62
f 30//30 63//63 62//62
f 30//30 31//31 63//63
f 31//31 64//64 63//63
f 31//31 32//32 64//64
f 32//32 65//65 64//64
f 32//32 33//33 65//65
f 33//33 34//34 65//65
f 33//33 2//2 34//34
f 34//34 67//67 66//66
f 34//34 35//35 67//67
f 35//35 68//68 67//67
f 35//35 36//36 68//68
f 36//36 69//69 68//68
f 36//36 37//37 69//69
f 37//37 70//70 69//69
f 37//37 38//38 70//70
f 38//38 71//71 70//70
f 38//38 39//39 71//71
f 39//39 72//72 71//71
f 39//39 40//40 72//72
f 40//40 73//73 72//72
f 40//40 41//41 73//73
f 41//41 74//74 73//73
f 41//41 42//42 74//74
f 42//42 75//75 74//74
f 42//42 43//43 75//75
f 43//43 76//76 75//75
f 43//43 44//44 76//76
f 44//44 77//77 76//76
f 44//44 45//45 77//77
f 45//45 78//78 77//77
f 45//45 46//46 78//78
f 46//46 79//79 78//78
f 46//46 47//47 79//79
f 47//47 80//80 79//79
f 47//47 48//48 80//80
f 48//48 81//81 80//80
f 48//48 49//49 81//81
f 49//49 82//82 81//81
f 49//49 50//50 82//82
f 50//50 83//83 82//82
f 50//50 51//51 83//83
f 51//51 84//84 83//83
f 51//51 52//52 84//84
f 52//52 85//85 84//84
f 52//52 53//53 85//85
f 53//53 86//86 85//85
f 53//53 54//54 86//86
f 54//54 87//87 86//86
f 54//54 55//55 87//87
f 55//55 88//88 87//87
f 55//55 56//56 88//88
f 56//56 89//89 88//88
f 56//56 57//57 89//89
f 57//57 90//90 89//89
f 57//57 58//58 90//90
f 58//58 91//91 90//90
f 58//58 59//59 91//91
f 59//59 92//92 91//91
f 59//59 60//60 92//92
f 60//60 93//93 92//92
f 60//60 61//61 93//93
f 61//61 94//94 93//93
f 61//61 62//62 94//94
f 62//62 95//95 94//94
f 62//62 63//63 95//95
f 63//63 96//96 95//95
f 63//63 64//64 96//96
f 64//64 97//97 96//96
f 64//64 65//65 97//97
f 65//65 66//66 97//97
f 65//65 34//34 66//66
f 66//66 99//99 98//98
f 66//66 67//67 99//99
f 67//67 100//100 99//99
f 67//67 68//68 100//100
f 68//68 101//101 100//100
f 68//68 69//69 101//101
f 69//69 102//102 101//101
f 69//69 70//70 102//102
f 70//70 103//103 102//102
f 70//70 71//71 103//103
f 71//71 104//104 103//103
f 71//71 72//72 104//104
f 72//72 105//105 104//104
f 72//72 73//73 105//105
f 73//73 106//106 105//105
f 73//73 74//74 106//106
f 74//74 107//107 106//106
f 74//74 75//75 107//107
f 75//75 108//108 107//107
f 75//75 76//76 108//108
f 76//76 109//109 108//108
f 76//76 77//77 109//109
f 77//77 110//110 109//109
f 77//77 78//78 110//110
f 78//78 111//111 110//110
f 78//78 79//79 111//111
f 79//79 112//112 111//111
f 79//79 80//80 112//112
f 80//80 113//113 112//112
f 80//80 81//81 113//113
f 81//81 114//114 113//113
f 81//81 82//82 114//114
f 82//82 115//115 114//114
f 82//82 83//83 115//115
f 83//83 116//116 115//115
f 83//83 84//84 116//116
f 84//84 117//117 116//116
f 84//84 85//85 117//117
f 85//85 118//118 117//117
f 85//85 86//86 118//118
f 86//86 119//119 118//118
f 86//86 87//87 119//119
f 87//87 120//120 119//119
f 87//87 88//88 120//120
f 88//88 121//121 120//120
f 88//88 89//89 121//121
f 89//89 122//122 121//121
f 89//89 90//90 122//122
f 90//90 123//123 122//122
f 90//90 91//91 123//123
f 91//91 124//124 123//123
f 91//91 92//92 124//124
f 92//92 125//125 124//124
f 92//92 93//93 125//125
f 93//93 126//126 125//125
f 93//93 94//94 126//126
f 94//94 127//127 126//126
f 94//94 95//95 127//127
f 95//95 128//128 127//127
f 95//95 96//96 128//128
f 96//96 129//129 128//128
f 96//96 97//97 129//129
f 97//97 98//98 129//129
f 97//97 66//66 98//98
f 98//98 131//131 130//130
f 98//98 99//99 131//131
f 99//99 132//132 131//131
f 99//99 100//100 132//132
f 100//100 133//133 132//132
f 100//100 101//101 133//133
f 101//101 134//134 133//133
f 101//101 102//102 134//134
f 102//102 135//135 134//134
f 102//102 103//103 135//135
f 103//103 136//136 135//135
f 103//103 104//104 136//136
f 104//104 137//137 136//136
f 104//104 105//105 137//137
f 105//105 138//138 137//137
f 105//105 106//106 138//138
f 106//106 139//139 138//138
f 106//106 107//107 139//139
f 107//107 140//140 139//139
f 107//107 108//108 140//140
f 108//108 141//141 140//140
f 108//108 109//109 141//141
f 109//109 142//142 141//141
f 109//109 110//110 142//142
f 110//110 143//143 142//142
f 110//110 111//111 143//143
f 111//111 144//144 143//143
f 111//111 112//112 144//144
f 112//112 145//145 144//144
f 112//112 113//113 145//145
f 113//113 146//146 145//145
f 113//113 114//114 146//146
f 114//114 147//147 146//146
f 114//114 115//115 147//147
f 115//115 148//148 147//147
f 115//115 116//116 148//148
f 116//116 149//149 148//148
f 116//116 117//117 149//149
f 117//117 150//150 149//149
f 117//117 118//118 150//150
f 118//118 151//151 150//150
f 118//118 119//119 151//151
f 119//119 152//152 151//151
f 119//119 120//120 152//152
f 120//120 153//153 152//152
f 120//120 121//121 153//153
f 121//121 154//154 153//153
f 121//121 122//122 154//154
f 122//122 155//155 154//154
f 122//122 123//123 155//155
f 123//123 156//156 155//155
f 123//123 124//124 156//156
f 124//124 157//157 156//156
f 124//124 125//125 157//157
f 125//125 158//158 157//157
f 125//125 126//126 158//158
f 126//126 159//159 158//158
f 126//126 127//127 159//159
f 127//127 160//160 159//159
f 127//127 128//128 160//160
f 128//128 161//161 160//160
f 128//128 129//129 161//161
f 129//129 130//130 161//161
f 129//129 98//98 130//130
f 130//130 163//163 162//162
f 130//130 131//131 163//163
f 131//131 164//164 163//163
f 131//131 132//132 164//164
f 132//132 165//165 164//164
f 132//132 133//133 165//165
f 133//133 166//166 165//165
f 133//133 134//134 166//166
f 134//134 167//167 166//166
f 134//134 135//135 167//167
f 135//135 168//168 167//167
f 135//135 136//136 168//168
f 136//136 169//169 168//168
f 136//136 137//137 169//169
f 137//137 170//170 169//169
f 137//137 138//138 170//170
f 138//138 171//171 170//170
f 138//138 139//139 171//171
f 139//139 172//172 171//171
f 139//139 140//140 172//172
f 140//140 173//173 172//172
f 140//140 141//141 173//173
f 141//141 174//174 173//173
f 141//141 142//142 174//174
f 142//142 175//175 174//174
f 142//142 143//143 175//175
f 143//143 176//176 175//175
f 143//143 144//144 176//176
f 144//144 177//177 176//176
f 144//144 145//145 177//177
f 145//145 178//178 177//177
f 145//145 146//146 178//178
f 146//146 179//179 178//178
f 146//146 147//147 179//179
f 147//147 180//180 179//179
f 147//147 148//148 180//180
f 148//148 181//181 180//180
f 148//148 149//149 181//181
f 149//149 182//182 181//181
f 149//149 150//150 182//182
f 150//150 183//183 182//182
f 150//150 151//151 183//183
f 151//151 184//184 183//183
f 151//151 152//152 184//184
f 152//152 185//185 184//184
f 152//152 153//153 185//185
f 153//153 186//186 185//185
f 153//153 154//154 186//186
f 154//154 187//187 186//186
f 154//154 155//155 187//187
f 155//155 188//188 187//187
f 155//155 156//156 188//188
f 156//156 189//189 188//188
f 156//156 157//157 189//189
f 157//157 190//190 189//189
f 157//157 158//158 190//190
f 158//158 191//191 190//190
f 158//158 159//159 191//191
f 159//159 192//192 191//191
f 159//159 160//160 192//192
f 160//160 193//193 192//192
f 160//160 161//161 193//193
f 161//161 162//162 193//193
f 161//161 130//130 162//162
f 162//162 195//195 194//194
f 162//162 163//163 195//195
f 163//163 196//196 195//195
f 163//163 164//164 196//196
f 164//164 197//197 196//196
f 164//164 165//165 197//197
f 165//165 198//198 197//197
f 165//165 166//166 198//198
f 166//166 199//199 198//198
f 166//166 167//167 199//199
f 167//167 200//200 199//199
f 167//167 168//168 200//200
f 168//168 201//201 200//200
f 168//168 169//169 201//201
f 169//169 202//202 201//201
f 169//169 170//170 202//202
f 170//170 203//203 202//202
f 170//170 171//171 203//203
f 171//171 204//204 203//203
f 171//171 172//172 204//204
f 172//172 205//205 204//204
f 172//172 173//173 205//205
f 173//173 206//206 205//205
f 173//173 174//174 206//206
f 174//174 207//207 206//206
f 174//174 175//175 207//207
f 175//175 208//208 207//207
f 175//175 176//176 208//208
f 176//176 209//209 208//208
f 176//176 177//177 209//209
f 177//177 210//210 209//209
f 177//177 178//178 210//210
f 178//178 211//211 210//210
f 178//178 179//179 211//211
f 179//179 212//212 211//211
f 179//179 180//180 212//212
f 180//180 213//213 212//212
f 180//180 181//181 213//213
f 181//181 214//214 213//213
f 181//181 182//182 214//214
f 182//182 215//215 214//214
f 182//182 183//183 215//215
f 183//183 216//216 215//215
f 183//183 184//184 216//216
f 184//184 217//217 216//216
f 184//184 185//185 217//217
f 185//185 218//218 217//217
f 185//185 186//186 218//218
f 186//186 219//219 218//218
f 186//186 187//187 219//219
f 187//187 220//220 219//219
f 187//187 188//188 220//220
f 188//188 221//221 220//220
f 188//188 189//189 221//221
f 189//189 222//222 221//221
f 189//189 190//190 222//222
f 190//190 223//223 222//222
f 190//190 191//191 223//223
f 191//191 224//224 223//223
f 191//191 192//192 224//224
f 192//192 225//225 224//224
f 192//192 193//193 225//225
f 193//193 194//194 225//225
f 193//193 162//162 194//194
f 194//194 195//195 227//227
f 195//195 228//228 227//227
f 195//195 196//196 228//228
f 196//196 229//229 228//228
f 196//196 197//197 229//229
f 197//197 230//230 229//229
f 197//197 198//198 230//230
f 198//198 231//231 230//230
f 198//198 199//199 231//231
f 199//199 232//232 231//231
f 199//199 200//200 232//232
f 200//200 233//233 232//232
f 200//200 201//201 233//233
f 201//201 234//234 233//233
f 201//201 202//202 234//234
f 202//202 235//235 234//234
f 202//202 203//203 235//235
f 203//203 236//236 235//235
f 203//203 204//204 236//236
f 204//204 237//237 236//236
f 204//204 205//205 237//237
f 205//205 238//238 237//237
f 205//205 206//206 238//238
f 206//206 239//239 238//238
f 206//206 207//207 239//239
f 207//207 240//240 239//239
f 207//207 208//208 240//240
f 208//208 241//241 240//240
f 208//208 209//209 241//241
f 209//209 242//242 241//241
f 209//209 210//210 242//242
f 210//210 243//243 242//242
f 210//210 211//211 243//243
f 211//211 244//244 243//243
f 211//211 212//212 244//244
f 212//212 245//245 244//244
f 212//212 213//213 245//245
f 213//213 246//246 245//245
f 213//213 214//214 246//246
f 214//214 247//247 246//246
f 214//214 215//215 247//247
f 215//215 248//248 247//247
f 215//215 216//216 248//248
f 216//216 249//249 248//248
f 216//216 217//217 249//249
f 217//217 250//250 249//249
f 217//217 218//218 250//250
f 218//218 251//251 250//250
f 218//218 219//219 251//251
f 219//219 252//252 251//251
f 219//219 220//220 252//252
f 220//220 253//253 252//252
f 220//220 221//221 253//253
f 221//221 254//254 253//253
f 221//221 222//222 254//254
f 222//222 255//255 254//254
f 222//222 223//223 255//255
f 223//223 256//256 255//255
f 223//223 224//224 256//256
f 224//224 257//257 256//256
f 224//224 225//225 257//257
f 225//225 226//226 257//257
f 225//225 194//194 226//226
f 226//226 259//259 258//258
f 226//226 227//227 259//259
f 227//227 260//260 259//259
f 227//227 228//228 260//260
f 228//228 261//261 260//260
f 228//228 229//229 261//261
f 229//229 262//262 261//261
f 229//229 230//230 262//262
f 230//230 263//263 262//262
f 230//230 231//231 263//263
f 231//231 264//264 263//263
f 231//231 232//232 264//264
f 232//232 265//265 264//264
f 232//232 233//233 265//265
f 233//233 266//266 265//265
f 234//234 267//267 266//266
f 234//234 235//235 267//267
f 235//235 268//268 267//267
f 235//235 236//236 268//268
f 236//236 269//269 268//268
f 236//236 237//237 269//269
f 237//237 270//270 269//269
f 237//237 238//238 270//270
f 238//238 271//271 270//270
f 238//238 239//239 271//271
f 239//239 272//272 271//271
f 239//239 240//240 272//272
f 240//240 273//273 272//272
f 240//240 241//241 273//273
f 241//241 274//274 273//273
f 242//242 275//275 274//274
f 242//242 243//243 275//275
f 243//243 276//276 275//275
f 243//243 244//244 276//276
f 244//244 277//277 276//276
f 244//244 245//245 277//277
f 245//245 278//278 277//277
f 245//245 246//246 278//278
f 246//246 279//279 278//278
f 246//246 247//247 279//279
f 247//247 280//280 279//279
f 247//247 248//248 280//280
f 248//248 281//281 280//280
f 248//248 249//249 281//281
f 249//249 282//282 281//281
f 250//250 283//283 282//282
f 250//250 251//251 283//283
f 251//251 284//284 283//283
f 251//251 252//252 284//284
f 252//252 285//285 284//284
f 252//252 253//253 285//285
f 253//253 286//286 285//285
f 253//253 254//254 286//286
f 254//254 287//287 286//286
f 254//254 255//255 287//287
f 255//255 288//288 287//287
f 255//255 256//256 288//288
f 256//256 289//289 288//288
f 256//256 257//257 289//289
f 257//257 258//258 289//289
f 257//257 226//226 258//258
f 258//258 291//291 290//290
f 258//258 259//259 291//291
f 259//259 292//292 291//291
f 259//259 260//260 292//292
f 260//260 293//293 292//292
f 260//260 261//261 293//293
f 261//261 294//294 293//293
f 261//261 262//262 294//294
f 262//262 295//295 294//294
f 262//262 263//263 295//295
f 263//263 296//296 295//295
f 263//263 264//264 296//296
f 264//264 297//297 296//296
f 264//264 265//265 297//297
f 265//265 298//298 297//297
f 265//265 266//266 298//298
f 266//266 299//299 298//298
f 266//266 267//267 299//299
f 267//267 300//300 299//299
f 267//267 268//268 300//300
f 268//268 301//301 300//300
f 268//268 269//269 301//301
f 269//269 302//302 301//301
f 269//269 270//270 302//302
f 270//270 303//303 302//302
f 270//270 271//271 303//303
f 271//271 304//304 303//303
f 271//271 272//272 304//304
f 272//272 305//305 304//304
f 272//272 273//273 305//305
f 273//273 306//306 305//305
f 273//273 274//274 306//306
f 274//274 307//307 306//306
f 274//274 275//275 307//307
f 275//275 308//308 307//307
f 275//275 276//276 308//308
f 276//276 309//309 308//308
f 276//276 277//277 309//309
f 277//277 310//310 309//309
f 277//277 278//278 310//310
f 278//278 311//311 310//310
f 278//278 279//279 311//311
f 279//279 312//312 311//311
f 279//279 280//280 312//312
f 280//280 313//313 312//312
f 280//280 281//281 313//313
f 281//281 314//314 313//313
f 281//281 282//282 314//314
f 282//282 315//315 314//314
f 282//282 283//283 315//315
f 283//283 316//316 315//315
f 283//283 284//284 316//316
f 284//284 317//317 316//316
f 284//284 285//285 317//317
f 285//285 318//318 317//317
f 285//285 286//286 318//318
f 286//286 319//319 318//318
f 286//286 287//287 319//319
f 287//287 320//320 319//319
f 287//287 288//288 320//320
f 288//288 321//321 320//320
f 288//288 289//289 321//321
f 289//289 290//290 321//321
f 289//289 258//258 290//290
f 290//290 323//323 322//322
f 290//290 291//291 323//323
f 291//291 324//324 323//323
f 291//291 292//292 324//324
f 292//292 325//325 324//324
f 292//292 293//293 325//325
f 293//293 326//326 325//325
f 293//293 294//294 326//326
f 294//294 327//327 326//326
f 294//294 295//295 327//327
f 295//295 328//328 327//327
f 295//295 296//296 328//328
f 296//296 329//329 328//328
f 296//296 297//297 329//329
f 297//297 330//330 329//329
f 297//297 298//298 330//330
f 298//298 331//331 330//330
f 298//298 299//299 331//331
f 299//299 332//332 331//331
f 299//299 300//300 332//332
f 300//300 333//333 332//332
f 300//300 301//301 333//333
f 301//301 334//334 333//333
f 301//301 302//302 334//334
f 302//302 335//335 334//334
f 302//302 303//303 335//335
f 303//303 336//336 335//335
f 303//303 304//304 336//336
f 304//304 337//337 336//336
f 304//304 305//305 337//337
f 305//305 338//338 337//337
f 305//305 306//306 338//338
f 306//306 339//339 338//338
f 306//306 307//307 339//339
f 307//307 340//340 339//339
f 307//307 308//308 340//340
f 308//308 341//341 340//340
f 308//308 309//309 341//341
f 309//309 342//342 341//341
f 309//309 310//310 342//342
f 310//310 343//343 342//342
f 310//310 311//311 343//343
f 311//311 344//344 343//343
f 311//311 312//312 344//344
f 312//312 345//345 344//344
f 312//312 313//313 345//345
f 313//313 346//346 345//345
f 313//313 314//314 346//346
f 314//314 347//347 346//346
f 314//314 315//315 347//347
f 315//315 348//348 347//347
f 315//315 316//316 348//348
f 316//316 349//349 348//348
f 316//316 317//317 349//349
f 317//317 350//350 349//349
f 317//317 318//318 350//350
f 318//318 351//351 350//350
f 318//318 319//319 351//351
f 319//319 352//352 351//351
f 319//319 320//320 352//352
f 320//320 353//353 352//352
f 320//320 321//321 353//353
f 321//321 322//322 353//353
f 321//321 290//290 322//322
f 322//322 355//355 354//354
f 322//322 323//323 355//355
f 323//323 356//356 355//355
f 323//323 324//324 356//356
f 324//324 357//357 356//356
f 324//324 325//325 357//357
f 325//325 358//358 357//357
f 325//325 326//326 358//358
f 326//326 359//359 358//358
f 326//326 327//327 359//359
f 327//327 360//360 359//359
f 327//327 328//328 360//360
f 328//328 361//361 360//360
f 328//328 329//329 361//361
f 329//329 362//362 361//361
f 329//329 330//330 362//362
f 330//330 363//363 362//362
f 330//330 331//331 363//363
f 331//331 364//364 363//363
f 331//331 332//332 364//364
f 332//332 365//365 364//364
f 332//332 333//333 365//365
f 333//333 366//366 365//365
f 333//333 334//334 366//366
f 334//334 367//367 366//366
f 334//334 335//335 367//367
f 335//335 368//368 367//367
f 335//335 336//336 368//368
f 336//336 369//369 368//368
f 336//336 337//337 369//369
f 337//337 370//370 369//369
f 337//337 338//338 370//370
f 338//338 371//371 370//370
f 338//338 339//339 371//371
f 339//339 372//372 371//371
f 339//339 340//340 372//372
f 340//340 373//373 372//372
f 340//340 341//341 373//373
f 341//341 374//374 373//373
f 341//341 342//342 374//374
f 342//342 375//375 374//374
f 342//342 343//343 375//375
f 343//343 376//376 375//375
f 343//343 344//344 376//376
f 344//344 377//377 376//376
f 344//344 345//345 377//377
f 345//345 378//378 377//377
f 345//345 346//346 378//378
f 346//346 379//379 378//378
f 346//346 347//347 379//379
f 347//347 380//380 379//379
f 347//347 348//348 380//380
f 348//348 381//381 380//380
f 348//348 349//349 381//381
f 349//349 382//382 381//381
f 349//349 350//350 382//382
f 350//350 383//383 382//382
f 350//350 351//351 383//383
f 351//351 384//384 383//383
f 351//351 352//352 384//384
f 352//352 385//385 384//384
f 352//352 353//353 385//385
f 353//353 354//354 385//385
f 353//353 322//322 354//354
f 354//354 387//387 386//386
f 354//354 355//355 387//387
f 355//355 388//388 387//387
f 355//355 356//356 388//388
f 356//356 389//389 388//388
f 356//356 357//357 389//389
f 357//357 390//390 389//389
f 357//357 358//358 390//390
f 358//358 391//391 390//390
f 358//358 359//359 391//391
f 359//359 392//392 391//391
f 359//359 360//360 392//392
f 360//360 393//393 392//392
f 360//360 361//361 393//393
f 361//361 394//394 393//393
f 361//361 362//362 394//394
f 362//362 395//395 394//394
f 362//362 363//363 395//395
f 363//363 396//396 395//395
f 363//363 364//364 396//396
f 364//364 397//397 396//396
f 364//364 365//365 397//397
f 365//365 398//398 397//397
f 365//365 366//366 398//398
f 366//366 399//399 398//398
f 366//366 367//367 399//399
f 367//367 400//400 399//399
f 367//367 368//368 400//400
f 368//368 401//401 400//400
f 368//368 369//369 401//401
f 369//369 402//402 401//401
f 369//369 370//370 402//402
f 370//370 403//403 402//402
f 370//370 371//371 403//403
f 371//371 404//404 403//403
f 371//371 372//372 404//404
f 372//372 405//405 404//404
f 372//372 373//373 405//405
f 373//373 406//406 405//405
f 373//373 374//374 406//406
f 374//374 407//407 406//406
f 374//374 375//375 407//407
f 375//375 408//408 407//407
f 375//375 376//376 408//408
f 376//376 409//409 408//408
f 376//376 377//377 409//409
f 377//377 410//410 409//409
f 377//377 378//378 410//410
f 378//378 411//411 410//410
f 378//378 379//379 411//411
f 379//379 412//412 411//411
f 379//379 380//380 412//412
f 380//380 413//413 412//412
f 380//380 381//381 413//413
f 381//381 414//414 413//413
f 381//381 382//382 414//414
f 382//382 415//415 414//414
f 382//382 383//383 415//415
f 383//383 416//416 415//415
f 383//383 384//384 416//416
f 384//384 417//417 416//416
f 384//384 385//385 417//417
f 385//385 386//386 417//417
f 385//385 354//354 386//386
f 386//386 419//419 418//418
f 386//386 387//387 419//419
f 387//387 420//420 419//419
f 387//387 388//388 420//420
f 388//388 421//421 420//420
f 388//388 389//389 421//421
f 389//389 422//422 421//421
f 389//389 390//390 422//422
f 390//390 423//423 422//422
f 390//390 391//391 423//423
f 391//391 424//424 423//423
f 391//391 392//392 424//424
f 392//392 425//425 424//424
f 392//392 393//393 425//425
f 393//393 426//426 425//425
f 393//393 394//394 426//426
f 394//394 427//427 426//426
f 394//394 395//395 427//427
f 395//395 428//428 427//427
f 395//395 396//396 428//428
f 396//396 429//429 428//428
f 396//396 397//397 429//429
f 397//397 430//430 429//429
f 397//397 398//398 430//430
f 398//398 431//431 430//430
f 398//398 399//399 431//431
f 399//399 432//432 431//431
f 399//399 400//400 432//432
f 400//400 433//433 432//432
f 400//400 401//401 433//433
f 401//401 434//434 433//433
f 401//401 402//402 434//434
f 402//402 435//435 434//434
f 402//402 403//403 435//435
f 403//403 436//436 435//435
f 403//403 404//404 436//436
f 404//404 437//437 436//436
f 404//404 405//405 437//437
f 405//405 438//438 437//437
f 405//405 406//406 438//438
f 406//406 439//439 438//438
f 406//406 407//407 439//439
f 407//407 440//440 439//439
f 407//407 408//408 440//440
f 408//408 441//441 440//440
f 408//408 409//409 441//441
f 409//409 442//442 441//441
f 409//409 410//410 442//442
f 410//410 443//443 442//442
f 410//410 411//411 443//443
f 411//411 444//444 443//443
f 411//411 412//412 444//444
f 412//412 445//445 444//444
f 412//412 413//413 445//445
f 413//413 446//446 445//445
f 413//413 414//414 446//446
f 414//414 447//447 446//446
f 414//414 415//415 447//447
f 415//415 448//448 447//447
f 415//415 416//416 448//448
f 416//416 449//449 448//448
f 416//416 417//417 449//449
f 417//417 418//418 449//449
f 417//417 386//386 418//418
f 418//418 451//451 450//450
f 418//418 419//419 451//451
f 419//419 452//452 451//451
f 419//419 420//420 452//452
f 420//420 453//453 452//452
f 420//420 421//421 453//453
f 421//421 454//454 453//453
f 421//421 422//422 454//454
f 422//422 455//455 454//454
f 422//422 423//423 455//455
f 423//423 456//456 455//455
f 423//423 424//424 456//456
f 424//424 457//457 456//456
f 424//424 425//425 457//457
f 425//425 458//458 457//457
f 425//425 426//426 458//458
f 426//426 459//459 458//458
f 426//426 427//427 459//459
f 427//427 460//460 459//459
f 427//427 428//428 460//460
f 428//428 461//461 460//460
f 428//428 429//429 461//461
f 429//429 462//462 461//461
f 429//429 430//430 462//462
f 430//430 463//463 462//462
f 430//430 431//431 463//463
f 431//431 464//464 463//463
f 431//431 432//432 464//464
f 432//432 465//465 464//464
f 432//432 433//433 465//465
f 433//433 466//466 465//465
f 433//433 434//434 466//466
f 434//434 467//467 466//466
f 434//434 435//435 467//467
f 435//435 468//468 467//467
f 435//435 436//436 468//468
f 436//436 469//469 468//468
f 436//436 437//437 469//469
f 437//437 470//470 469//469
f 437//437 438//438 470//470
f 438//438 471//471 470//470
f 438//438 439//439 471//471
f 439//439 472//472 471//471
f 439//439 440//440 472//472
f 440//440 473//473 472//472
f 440//440 441//441 473//473
f 441//441 474//474 473//473
f 441//441 442//442 474//474
f 442//442 475//475 474//474
f 442//442 443//443 475//475
f 443//443 476//476 475//475
f 443//443 444//444 476//476
f 444//444 477//477 476//476
f 444//444 445//445 477//477
f 445//445 478//478 477//477
f 445//445 446//446 478//478
f 446//446 479//479 478//478
f 446//446 447//447 479//479
f 447//447 480//480 479//479
f 447//447 448//448 480//480
f 448//448 481//481 480//480
f 448//448 449//449 481//481
f 449//449 450//450 481//481
f 449//449 418//418 450//450
f 450//450 451//451 482//482
f 451//451 452//452 482//482
f 453//453 454//454 482//482
f 454//454 455//455 482//482
f 455//455 456//456 482//482
f 456//456 457//457 482//482
f 457//457 458//458 482//482
f 458//458 459//459 482//482
f 459//459 460//460 482//482
f 460//460 461//461 482//482
f 461//461 462//462 482//482
f 462//462 463//463 482//482
f 463//463 464//464 482//482
f 464//464 465//465 482//482
f 465//465 466//466 482//482
f 466//466 467//467 482//482
f 467//467 468//468 482//482
f 468//468 469//469 482//482
f 469//469 470//470 482//482
f 470//470 471//471 482//482
f 471//471 472//472 482//482
f 472//472 473//473 482//482
f 473//473 474//474 482//482
f 474//474 475//475 482//482
f 475//475 476//476 482//482
f 476//476 477//477 482//482
f 477//477 478//478 482//482
f 478//478 479//479 482//482
f 479//479 480//480 482//482
f 480//480 481//481 482//482
f 481//481 450//450 482//482
f 194//194 227//227 483//483
f 227//227 226//226 483//483
f 226//226 194//194 483//483
f 241//241 242//242 484//484
f 242//242 274//274 484//484
f 274//274 241//241 484//484
f 1//1 26//26 485//485
f 26//26 25//25 485//485
f 25//25 1//1 485//485
f 452//452 453//453 486//486
f 453//453 482//482 486//486
f 482//482 452//452 486//486
f 233//233 234//234 487//487
f 234//234 266//266 487//487
f 266//266 233//233 487//487
f 249//249 250//250 488//488
f 250//250 282//282 488//488
f 282//282 249//249 488//488
