# https://github.com/mikedh/trimesh
v -1.00000000 -1.00000000 -1.00000000
v -1.00000000 -1.00000000 1.00000000
v -1.00000000 1.00000000 -1.00000000
v -1.00000000 1.00000000 1.00000000
v 1.00000000 -1.00000000 -1.00000000
v 1.00000000 -1.00000000 1.00000000
v 1.00000000 1.00000000 -1.00000000
v 1.00000000 1.00000000 1.00000000
v 0.98000000 -0.22000000 0.22000000
v 0.98000000 -0.22000000 -0.22000000
v 0.98000000 0.22000000 -0.22000000
v 0.98000000 0.22000000 0.22000000
v 1.38000000 0.00000000 0.00000000
v -0.98000000 -0.22000000 -0.22000000
v -0.98000000 -0.22000000 0.22000000
v -0.98000000 0.22000000 0.22000000
v -0.98000000 0.22000000 -0.22000000
v -1.38000000 0.00000000 0.00000000
v 0.22000000 0.98000000 0.22000000
v 0.22000000 0.98000000 -0.22000000
v -0.22000000 0.98000000 -0.22000000
v -0.22000000 0.98000000 0.22000000
v 0.00000000 1.38000000 0.00000000
v -0.22000000 -0.98000000 0.22000000
v -0.22000000 -0.98000000 -0.22000000
v 0.22000000 -0.98000000 -0.22000000
v 0.22000000 -0.98000000 0.22000000
v 0.00000000 -1.38000000 0.00000000
v -0.22000000 -0.22000000 0.98000000
v 0.22000000 -0.22000000 0.98000000
v 0.22000000 0.22000000 0.98000000
v -0.22000000 0.22000000 0.98000000
v 0.00000000 0.00000000 1.38000000
v 0.22000000 -0.22000000 -0.98000000
v -0.22000000 -0.22000000 -0.98000000
v -0.22000000 0.22000000 -0.98000000
v 0.22000000 0.22000000 -0.98000000
v 0.00000000 0.00000000 -1.38000000
f 2 4 1
f 5 2 1
f 1 4 3
f 3 5 1
f 2 8 4
f 6 2 5
f 6 8 2
f 4 8 3
f 7 5 3
f 3 8 7
f 7 6 5
f 8 6 7
f 9 10 11
f 9 11 12
f 9 10 13
f 10 11 13
f 11 12 13
f 12 9 13
f 14 15 16
f 14 16 17
f 14 15 18
f 15 16 18
f 16 17 18
f 17 14 18
f 19 20 21
f 19 21 22
f 19 20 23
f 20 21 23
f 21 22 23
f 22 19 23
f 24 25 26
f 24 26 27
f 24 25 28
f 25 26 28
f 26 27 28
f 27 24 28
f 29 30 31
f 29 31 32
f 29 30 33
f 30 31 33
f 31 32 33
f 32 29 33
f 34 35 36
f 34 36 37
f 34 35 38
f 35 36 38
f 36 37 38
f 37 34 38

